<?xml version="1.0" encoding="iso-8859-1"?>
<!-- Generator: Adobe Illustrator 19.0.0, SVG Export Plug-In . SVG Version: 6.00 Build 0)  -->
<svg version="1.1" id="Capa_1" xmlns="http://www.w3.org/2000/svg" xmlns:xlink="http://www.w3.org/1999/xlink" x="0px" y="0px"
	 viewBox="0 0 512.002 512.002" style="enable-background:new 0 0 512.002 512.002;" xml:space="preserve">
<g>
	<g>
		<path d="M212.834,280.33c-2.412-15.816-5.525-36.197-10.644-69.634c-2.245-13.652-3.383-27.931-3.383-42.443
			c0-5.749,0.18-11.533,0.537-17.194c0.26-4.138-2.883-7.704-7.022-7.964c-4.119-0.239-7.704,2.883-7.964,7.022
			c-0.375,5.972-0.566,12.075-0.566,18.136c0,2.594,0.047,5.177,0.116,7.755h-18.23c-4.146-0.001-7.507,3.359-7.507,7.506
			c0,4.147,3.361,7.507,7.507,7.507h19.013c0.597,7.482,1.488,14.846,2.671,22.029c1.844,12.046,3.426,22.393,4.812,31.451h-16.68
			c-4.146,0-7.507,3.36-7.507,7.507c0,4.147,3.361,7.507,7.507,7.507h18.976c1.363,8.924,2.506,16.41,3.523,23.08
			c0.567,3.716,3.766,6.376,7.412,6.376c0.376,0,0.758-0.028,1.141-0.087C210.644,288.258,213.459,284.429,212.834,280.33z"/>
	</g>
</g>
<g>
	<g>
		<path d="M416.964,342.393h-32.723c-8.888-6.938-18.466-13.078-28.604-18.375c0.186-0.583,0.376-1.18,0.56-1.753l0.378-1.185
			c2.473-7.751,4.676-14.66,7.018-22.027c0.917-2.879,1.858-5.833,2.846-8.937h21.456c4.146,0,7.507-3.361,7.507-7.507
			c0-4.147-3.361-7.507-7.507-7.507h-16.672c0.778-2.439,1.59-4.988,2.447-7.68l10.151-31.859h20.618
			c4.146,0,7.507-3.36,7.507-7.507s-3.361-7.507-7.507-7.507h-15.834l2.002-6.283c5.053-14.798,7.614-30.279,7.614-46.015
			c0-0.546-0.014-1.087-0.021-1.632l19.655-4.014c4.063-0.83,6.684-4.796,5.854-8.859c-0.83-4.062-4.795-6.687-8.858-5.854
			l-17.622,3.599c-2.266-19.223-8.376-37.283-17.546-53.389l16.175-8.568c3.664-1.941,5.061-6.484,3.12-10.149
			c-1.941-3.664-6.484-5.061-10.148-3.12l-17.283,9.155c-9.732-13.538-21.777-25.303-35.557-34.711l12.161-9.122
			c3.317-2.487,3.989-7.194,1.501-10.51c-2.488-3.316-7.194-3.988-10.51-1.501l-17.033,12.775
			c-17.676-9.319-37.537-15.031-58.6-16.132V7.507c0-4.147-3.361-7.507-7.507-7.507c-4.146,0-7.507,3.36-7.507,7.507V26.22
			c-21.064,1.101-40.924,6.813-58.6,16.134l-17.033-12.775c-3.317-2.486-8.022-1.816-10.51,1.501
			c-2.487,3.317-1.816,8.023,1.501,10.51l12.161,9.122c-13.779,9.408-25.826,21.173-35.557,34.711l-17.283-9.155
			c-3.664-1.94-8.207-0.544-10.148,3.12c-1.941,3.664-0.544,8.207,3.12,10.149l16.175,8.568
			c-9.169,16.106-15.279,34.167-17.546,53.389l-17.622-3.599c-4.063-0.831-8.028,1.792-8.858,5.854
			c-0.83,4.063,1.791,8.029,5.854,8.859l19.655,4.014c-0.006,0.545-0.021,1.086-0.021,1.632c0,15.736,2.562,31.216,7.614,46.015
			l2.002,6.283h-15.834c-4.146,0-7.507,3.36-7.507,7.507s3.361,7.507,7.507,7.507h20.618l10.105,31.718
			c0.874,2.744,1.702,5.339,2.492,7.822h-16.671c-4.146,0-7.507,3.36-7.507,7.507c0,4.146,3.361,7.507,7.507,7.507h21.455
			c1.115,3.499,2.169,6.811,3.196,10.038c1.257,3.951,5.482,6.136,9.43,4.876c3.951-1.257,6.134-5.48,4.877-9.431
			c-2.982-9.366-6.18-19.404-10.473-32.877l-16.914-53.089c-0.017-0.051-0.033-0.101-0.05-0.151
			c-4.533-13.253-6.833-27.127-6.833-41.231c0-56.839,37.468-105.087,88.998-121.349c-9.576,11.542-17.678,27.476-23.591,46.857
			h-21.382c-4.146,0-7.507,3.36-7.507,7.507s3.361,7.507,7.507,7.507h17.397c-0.786,3.45-1.509,6.984-2.165,10.601
			c-0.739,4.08,1.969,7.987,6.049,8.726c4.078,0.737,7.987-1.969,8.726-6.049c8.636-47.672,30.481-80.973,53.132-81.013
			c0.014,0,0.027,0.002,0.041,0.002c0.017,0,0.033-0.002,0.049-0.002c14.016,0.03,28.204,12.856,38.935,35.201
			c11.743,24.452,18.211,57.129,18.211,92.012c0,14.512-1.138,28.792-3.396,42.526c-5.106,33.355-8.219,53.737-10.631,69.552
			c-0.626,4.099,2.191,7.929,6.289,8.553c0.383,0.059,0.765,0.087,1.141,0.087c3.647,0,6.846-2.661,7.412-6.376
			c1.018-6.671,2.161-14.16,3.523-23.08h18.976c4.146,0,7.507-3.36,7.507-7.507c0-4.147-3.361-7.507-7.507-7.507h-16.68
			c1.382-9.041,2.961-19.361,4.799-31.369c1.189-7.226,2.084-14.614,2.683-22.111h19.014c4.146,0,7.507-3.36,7.507-7.507
			c0-4.147-3.361-7.507-7.507-7.507h-18.23c0.069-2.578,0.116-5.161,0.116-7.755c0-21.355-2.276-41.469-6.384-59.478h17.352
			c4.146,0,7.507-3.36,7.507-7.507c0-4.147-3.361-7.507-7.507-7.507h-21.345c-5.87-19.147-13.978-35.198-23.659-46.867
			c51.547,16.253,89.03,64.509,89.03,121.359c0,14.106-2.299,27.978-6.833,41.231c-0.017,0.051-0.034,0.101-0.05,0.151
			l-16.959,53.23c-4.103,12.875-7.205,22.611-10.079,31.637c-2.341,7.365-4.543,14.269-7.014,22.011l-0.321,1.005
			c-26.264-11.264-55.587-17.243-85.949-17.243c-48.01,0-93.427,14.944-128.238,42.117H95.04c-4.146,0-7.507,3.36-7.507,7.507
			v47.478c0,4.147,3.361,7.507,7.507,7.507h17.351l16.347,100.808c0.59,3.635,3.729,6.306,7.41,6.306h239.706
			c3.683,0,6.821-2.671,7.41-6.306l16.347-100.808h17.351c4.146,0,7.507-3.36,7.507-7.507v-47.478
			C424.472,345.754,421.11,342.393,416.964,342.393z M256.002,315.29c31.012,0,60.794,6.677,86.885,19.151
			c0.23,0.128,0.47,0.242,0.718,0.346c4.847,2.343,9.579,4.864,14.151,7.605H154.249C183.592,324.798,218.929,315.29,256.002,315.29
			z M409.457,389.871H180.428c-4.146,0-7.507,3.36-7.507,7.507s3.361,7.507,7.507,7.507h203.974l-14.936,92.1h-226.93l-14.936-92.1
			h23.533c4.146,0,7.507-3.36,7.507-7.507s-3.361-7.507-7.507-7.507h-48.587v-32.464h27.812h251.285h27.812V389.871z"/>
	</g>
</g>
<g>
</g>
<g>
</g>
<g>
</g>
<g>
</g>
<g>
</g>
<g>
</g>
<g>
</g>
<g>
</g>
<g>
</g>
<g>
</g>
<g>
</g>
<g>
</g>
<g>
</g>
<g>
</g>
<g>
</g>
</svg>
