<svg id="Capa_1" enable-background="new 0 0 512.012 512.012" height="512" viewBox="0 0 512.012 512.012" width="512" xmlns="http://www.w3.org/2000/svg"><g><path d="m475.09 154.465c-18.11-.296-33.392 12.413-37.395 29.654-14.52 3.069-25.819 14.425-28.894 28.843-17.068 3.632-29.665 18.709-29.665 36.765v27.976l-35.764 35.764c-17.34 17.339-26.89 40.393-26.89 64.915v77.287c0 4.143 3.357 7.5 7.5 7.5s7.5-3.357 7.5-7.5v-77.287c0-20.516 7.989-39.803 22.496-54.308l43.075-43.075c8.831-8.833 23.204-8.832 32.041.005 8.812 8.787 8.84 23.185-.006 32.03l-38.739 38.739c-2.929 2.93-2.929 7.678 0 10.607 2.931 2.929 7.678 2.928 10.607 0l38.738-38.739c12.446-12.444 14.41-31.677 5.526-46.234 4.214-6.055 6.484-13.238 6.484-20.772v-63.929c0-12.677 10.37-23.494 23.098-23.244 12.246.234 22.209 10.395 22.209 22.648v103.189c0 5.731-2.232 11.12-6.285 15.173l-56.813 56.813c-11.903 11.904-18.459 27.731-18.459 44.565v84.953h-83.972v-6.137c0-4.143-3.357-7.5-7.5-7.5s-7.5 3.357-7.5 7.5v13.637c0 4.143 3.357 7.5 7.5 7.5h98.972c4.143 0 7.5-3.357 7.5-7.5v-92.453c0-12.828 4.995-24.888 14.066-33.958l56.813-56.813c6.886-6.887 10.678-16.042 10.678-25.78v-103.188c.001-20.368-16.563-37.257-36.921-37.646zm-38.385 45.622v56.549c0 3.325-.751 6.535-2.174 9.438-3.579-2.484-7.496-4.276-11.563-5.377l.001-39.803c0-9.218 5.504-17.318 13.736-20.807zm-42.569 64.38v-14.74c0-9.388 5.665-17.436 13.833-20.85v30.85c-4.812.652-9.52 2.232-13.833 4.74z"/><path d="m67.491 377.895c9.071 9.07 14.066 21.13 14.066 33.958v6.044c0 4.143 3.357 7.5 7.5 7.5s7.5-3.357 7.5-7.5v-6.044c0-16.834-6.556-32.661-18.459-44.565l-56.813-56.813c-4.053-4.054-6.285-9.443-6.285-15.174v-103.19c0-12.254 9.963-22.414 22.209-22.648 12.879-.245 23.098 10.716 23.098 23.244v63.928c-.001 7.532 2.268 14.715 6.484 20.772-8.884 14.557-6.92 33.791 5.525 46.235l38.739 38.739c2.931 2.929 7.678 2.928 10.607 0 2.929-2.93 2.929-7.678 0-10.607l-38.74-38.739c-8.243-8.243-9.044-21.794-.996-30.965 4.351-4.952 10.476-7.706 17.015-7.706 6.051 0 11.739 2.356 16.018 6.636l43.075 43.075c14.507 14.506 22.496 33.793 22.496 54.307v118.425h-83.972v-43.909c0-4.143-3.357-7.5-7.5-7.5s-7.5 3.357-7.5 7.5v51.409c0 4.143 3.357 7.5 7.5 7.5h98.972c4.143 0 7.5-3.357 7.5-7.5v-125.926c0-24.521-9.55-47.574-26.889-64.914l-35.762-35.761-.001-27.979c.001-18.055-12.596-33.132-29.665-36.765-3.075-14.419-14.376-25.776-28.896-28.844-3.965-17.075-19.137-29.985-37.395-29.654-20.359.39-36.922 17.279-36.922 37.647v103.189c0 9.738 3.792 18.894 10.678 25.78zm50.387-128.168v14.728c-4.239-2.475-8.923-4.089-13.833-4.75v-30.827c8.169 3.413 13.834 11.46 13.833 20.849zm-28.863-30.029c.043 8.856.031-14.099.031 40.971-4.132 1.118-8.037 2.937-11.568 5.397-1.421-2.899-2.171-6.107-2.171-9.431v-56.549c7.767 3.292 13.251 10.784 13.708 19.612z"/><path d="m344.528 117.907c-3.073-5.601-8.951-9.079-15.34-9.079h-35.107c-1.72 0-2.938-1.699-2.352-3.338l29.248-81.9c4.064-11.381-4.391-23.384-16.479-23.384h-60.086c-7.376 0-13.999 4.667-16.479 11.613l-8.482 23.753c-1.393 3.901.641 8.192 4.541 9.586s8.192-.64 9.586-4.541l8.482-23.754c.354-.991 1.299-1.657 2.353-1.657h60.086c1.736 0 2.934 1.714 2.353 3.339l-29.247 81.899c-4.067 11.382 4.389 23.384 16.478 23.384h35.107c1.287 0 1.925.813 2.19 1.297.266.483.608 1.458-.082 2.543l-92.721 145.641h-20.588l34.007-95.221c2.326-6.525-2.519-13.401-9.447-13.401h-49.735c-1.724 0-2.938-1.702-2.353-3.338l31.152-87.23c1.393-3.9-.641-8.192-4.541-9.586-3.899-1.393-8.192.64-9.586 4.541l-31.152 87.23c-4.065 11.383 4.392 23.383 16.479 23.383h42.684l-31.946 89.451c-3.332 9.333 3.602 19.171 13.512 19.171h21.873c4.931 0 9.455-2.483 12.102-6.643l92.914-145.942c3.429-5.389 3.651-12.216.576-17.817z"/><path d="m428.014 115.774c0-11.211-9.12-20.332-20.331-20.332h-17.293c-11.211 0-20.331 9.121-20.331 20.332s9.12 20.332 20.331 20.332h17.293c11.211 0 20.331-9.121 20.331-20.332zm-42.955 0c0-2.94 2.392-5.332 5.331-5.332h17.293c2.939 0 5.331 2.392 5.331 5.332s-2.392 5.332-5.331 5.332h-17.293c-2.94 0-5.331-2.391-5.331-5.332z"/><path d="m359.54 211.669c7.927 7.925 20.826 7.927 28.754-.001 7.926-7.927 7.926-20.826-.001-28.754l-12.227-12.226c-7.944-7.946-20.807-7.949-28.753-.001-7.931 7.933-7.962 20.793-.001 28.754zm-1.621-30.374c2.084-2.084 5.455-2.086 7.541 0l12.227 12.226c2.079 2.079 2.079 5.463.001 7.541-2.08 2.078-5.462 2.078-7.54 0l-12.229-12.228c-2.084-2.084-2.084-5.456 0-7.539z"/><path d="m376.066 60.862 12.228-12.229c7.926-7.927 7.926-20.826-.001-28.754-7.929-7.927-20.826-7.925-28.753 0l-12.228 12.228c-7.946 7.948-7.947 20.808.001 28.754l-.001.001c7.93 7.928 20.826 7.926 28.754 0zm-18.146-18.147 12.228-12.228c1.039-1.04 2.404-1.56 3.77-1.56 4.72 0 7.13 5.74 3.77 9.1l-12.228 12.228c-2.084 2.084-5.456 2.083-7.54-.001-2.084-2.083-2.086-5.456 0-7.539z"/><path d="m83.995 115.774c0 11.211 9.121 20.332 20.332 20.332h17.292c11.211 0 20.332-9.121 20.332-20.332s-9.121-20.332-20.332-20.332h-17.292c-11.211 0-20.332 9.121-20.332 20.332zm42.956 0c0 2.94-2.392 5.332-5.332 5.332h-17.292c-2.94 0-5.332-2.392-5.332-5.332s2.392-5.332 5.332-5.332h17.292c2.941 0 5.332 2.392 5.332 5.332z"/><path d="m152.47 211.669 12.228-12.228c7.927-7.928 7.927-20.826 0-28.754-7.947-7.945-20.808-7.947-28.753 0l-12.229 12.227c-7.927 7.928-7.927 20.827 0 28.755 7.93 7.928 20.826 7.926 28.754 0zm-18.148-18.148 12.229-12.228c1.007-1.007 2.346-1.562 3.77-1.562 4.775 0 7.092 5.779 3.77 9.102l-12.228 12.228c-2.084 2.084-5.456 2.084-7.539 0-2.085-2.082-2.086-5.455-.002-7.54z"/><path d="m135.943 60.862c7.929 7.927 20.826 7.925 28.754-.001 7.926-7.927 7.927-20.825 0-28.754l-12.227-12.227c-7.928-7.926-20.826-7.926-28.754 0-7.927 7.928-7.927 20.827 0 28.755zm-1.62-30.375c2.084-2.084 5.456-2.084 7.539 0l12.228 12.227c2.079 2.079 2.079 5.462 0 7.54l.001.001c-2.08 2.078-5.462 2.078-7.54 0l-12.228-12.228c-2.084-2.082-2.085-5.456 0-7.54z"/></g></svg>