<svg id="Capa_1" enable-background="new 0 0 512 512" height="512" viewBox="0 0 512 512" width="512" xmlns="http://www.w3.org/2000/svg"><g><path d="m504.5 211.96c-4.142 0-7.5 3.358-7.5 7.5v88.08c0 13.382-10.888 24.27-24.27 24.27h-35.74v-151.62h35.74c9.114 0 17.378 5.033 21.568 13.135 1.902 3.679 6.429 5.119 10.107 3.217 3.68-1.903 5.12-6.428 3.217-10.107-6.777-13.104-20.146-21.245-34.892-21.245h-35.74v-5.74c0-31.077-25.278-56.36-56.35-56.36h-324.28c-31.077 0-56.36 25.283-56.36 56.36v193.1c0 31.077 25.283 56.36 56.36 56.36h21.44c4.142 0 7.5-3.358 7.5-7.5s-3.358-7.5-7.5-7.5h-21.44c-22.806 0-41.36-18.554-41.36-41.36v-193.1c0-22.806 18.554-41.36 41.36-41.36h324.28c22.801 0 41.35 18.554 41.35 41.36v193.1c0 22.806-18.549 41.36-41.35 41.36h-272.84c-4.142 0-7.5 3.358-7.5 7.5s3.358 7.5 7.5 7.5h272.84c31.072 0 56.35-25.283 56.35-56.36v-5.74h35.74c21.653 0 39.27-17.616 39.27-39.27v-88.08c0-4.142-3.358-7.5-7.5-7.5z"/><path d="m186.699 364.962c1.389-2.095 1.637-4.747.659-7.063l-88.524-209.633c-1.173-2.777-3.895-4.583-6.909-4.583h-35.57c-8.692 0-15.764 7.072-15.764 15.764v193.105c0 8.692 7.072 15.764 15.764 15.764h124.093c2.514 0 4.861-1.259 6.251-3.354zm-130.344-11.646c-.414 0-.764-.35-.764-.764v-193.105c0-.414.35-.764.764-.764h30.595l82.189 194.633z"/></g></svg>